<?xml version="1.0" encoding="utf-8"?>
<!-- Generator: Adobe Illustrator 16.0.0, SVG Export Plug-In . SVG Version: 6.00 Build 0)  -->
<!DOCTYPE svg PUBLIC "-//W3C//DTD SVG 1.1//EN" "http://www.w3.org/Graphics/SVG/1.1/DTD/svg11.dtd">
<svg version="1.1" id="Layer_1" xmlns="http://www.w3.org/2000/svg" xmlns:xlink="http://www.w3.org/1999/xlink" x="0px" y="0px"
	 width="275.728px" height="215.534px" viewBox="0 0 275.728 215.534" enable-background="new 0 0 275.728 215.534"
	 xml:space="preserve">
<path fill-rule="evenodd" clip-rule="evenodd" fill="none" stroke="#FFFFFF" stroke-width="2" stroke-miterlimit="10" d="
	M137.126,3.96c0,0,37.495-0.675,60.644,1.762c4.99,0.525,9.137,1.273,11.84,2.316c6.551,3.112,8.699,6.062,11.92,10.912
	c11.154,16.795,19.645,37.867,18.563,36.104c4.305-7.134,41.762-0.959,28.322,22.069c0,1.439-9.842,3.358-9.842,3.358
	s8.154,24.323,8.154,32.356c3.359,29.697,0.326,85.424-0.232,89.742c-0.504,3.886-7.396,9.556-21.361,9.115
	c-13.518-0.426-20.883-7.916-20.883-7.916l-0.719-16.791l-84.485-0.72l-2.4,0.01l-84.48,0.72l-0.72,16.8c0,0-7.363,7.493-20.88,7.92
	c-13.965,0.44-20.856-5.232-21.36-9.12c-0.56-4.319-0.48-64.607,2.88-94.32c0-8.038,5.04-27.84,5.04-27.84s-9.84-1.92-9.84-3.36
	c-13.44-23.04,24.495-32.579,28.32-22.08c-1.082,1.763,7.408-19.319,18.561-36.123c3.221-4.853,5.37-7.805,11.919-10.917
	c2.703-1.043,6.849-1.792,11.84-2.317c23.147-2.438,60.639-1.763,60.639-1.763"/>
</svg>
