<?xml version="1.0" encoding="utf-8"?>
<!-- Generator: Adobe Illustrator 16.0.0, SVG Export Plug-In . SVG Version: 6.00 Build 0)  -->
<!DOCTYPE svg PUBLIC "-//W3C//DTD SVG 1.1//EN" "http://www.w3.org/Graphics/SVG/1.1/DTD/svg11.dtd">
<svg version="1.1" id="Layer_1" xmlns="http://www.w3.org/2000/svg" xmlns:xlink="http://www.w3.org/1999/xlink" x="0px" y="0px"
	 width="275.728px" height="215.534px" viewBox="0 0 275.728 215.534" enable-background="new 0 0 275.728 215.534"
	 xml:space="preserve">
<path fill-rule="evenodd" clip-rule="evenodd" fill="none" stroke="#FFFFFF" stroke-width="2" stroke-miterlimit="10" d="
	M137.25,8.199c0,0,63.353-1.199,72.96,5.52c5.34,3.424,12.551,8.811,15.84,13.92c10.92,16.96,16.521,36.557,15.439,34.793
	c0.486-10.071,9.229-11.798,19.6-9.354c16.32,5.52,11.143,22.072,11.143,22.072l-24.342,4.088c0,0,2.967,2.872,5.607,5.511
	c2.643,2.64,13.451,18.238,13.451,21.597c3.363,29.709,0.48,94.31,0.48,94.31s-8.121,7.16-22.098,6.72
	c-13.525-0.427-22.336-7.439-22.336-7.439l0.24-11.759l-85.746,0.021h-82.56l0.24,11.76c0,0-8.803,7.014-22.32,7.44
	c-13.965,0.44-22.08-6.721-22.08-6.721s-2.88-64.607,0.48-94.32c0-3.36,10.8-18.96,13.44-21.6c2.64-2.64,5.76-6.24,5.76-6.24
	l-24.48-3.36c0,0-10.905-16.08,7.2-20.4c12.762-3.045,23.034-3.352,23.52,8.64c-1.082,1.763,5.889-19.277,16.8-36.24
	c3.287-5.11,8.583-10.016,13.92-13.44c9.6-6.72,73.44-5.52,73.44-5.52H137.25z"/>
</svg>
