<?xml version="1.0" encoding="utf-8"?>
<!-- Generator: Adobe Illustrator 16.0.0, SVG Export Plug-In . SVG Version: 6.00 Build 0)  -->
<!DOCTYPE svg PUBLIC "-//W3C//DTD SVG 1.1//EN" "http://www.w3.org/Graphics/SVG/1.1/DTD/svg11.dtd">
<svg version="1.1" id="Layer_1" xmlns="http://www.w3.org/2000/svg" xmlns:xlink="http://www.w3.org/1999/xlink" x="0px" y="0px"
	 width="283.98px" height="105.34px" viewBox="0 0 283.98 105.34" enable-background="new 0 0 283.98 105.34" xml:space="preserve">
<path fill-rule="evenodd" clip-rule="evenodd" fill="none" stroke="#FFFFFF" stroke-width="2" stroke-miterlimit="10" d="
	M191.874,91.661c0,0,12.721,10.56,26.641,10.56s22.32-12,22.32-12s34.559-6,37.68-8.88c0-12-5.76-48.72-5.76-48.72
	s-6.48-2.16-10.08-2.64c-3.601-0.48-33.601-14.641-64.801-23.04c-31.199-8.4-78-0.801-86.16,2.399c-4.561,2-38.64,21.2-41.04,21.84
	c-2.4,0.641-17.521,2.4-17.521,2.4s-34.64,5.68-42.96,18.72c-8.319,13.04-3.68,31.76-0.96,34.32
	c5.521,3.68,27.601,5.279,27.601,5.279s7.2,10.08,19.68,10.08c12.48,0,24.48-9.12,24.48-9.12l99.12-0.72l2.4-0.01L191.874,91.661z"
	/>
</svg>
