<?xml version="1.0" encoding="utf-8"?>
<!-- Generator: Adobe Illustrator 16.0.0, SVG Export Plug-In . SVG Version: 6.00 Build 0)  -->
<!DOCTYPE svg PUBLIC "-//W3C//DTD SVG 1.1//EN" "http://www.w3.org/Graphics/SVG/1.1/DTD/svg11.dtd">
<svg version="1.1" id="Layer_1" xmlns="http://www.w3.org/2000/svg" xmlns:xlink="http://www.w3.org/1999/xlink" x="0px" y="0px"
	 width="299.985px" height="158.992px" viewBox="0 0 299.985 158.992" enable-background="new 0 0 299.985 158.992"
	 xml:space="preserve">
<path fill-rule="evenodd" clip-rule="evenodd" fill="none" stroke="#FFFFFF" stroke-width="2" stroke-miterlimit="10" d="
	M135.232,134.457l-23.103-0.059c-11.515,10.756-26.977,17.338-43.977,17.338c-35.589,0-64.44-28.85-64.44-64.439
	c0-35.589,28.851-64.44,64.44-64.44c31.32-15.48,78.84-15.6,78.84-15.6h6c0,0,47.521,0.12,78.84,15.6
	c35.59,0,64.441,28.851,64.441,64.44c0,35.59-28.852,64.439-64.441,64.439c-17,0-32.461-6.582-43.977-17.338h-43.983
	L135.232,134.457z"/>
</svg>
