<?xml version="1.0" encoding="utf-8"?>
<!-- Generator: Adobe Illustrator 16.0.0, SVG Export Plug-In . SVG Version: 6.00 Build 0)  -->
<!DOCTYPE svg PUBLIC "-//W3C//DTD SVG 1.1//EN" "http://www.w3.org/Graphics/SVG/1.1/DTD/svg11.dtd">
<svg version="1.1" id="Layer_1" xmlns="http://www.w3.org/2000/svg" xmlns:xlink="http://www.w3.org/1999/xlink" x="0px" y="0px"
	 width="283.98px" height="105.34px" viewBox="0 0 283.98 105.34" enable-background="new 0 0 283.98 105.34" xml:space="preserve">
<path fill-rule="evenodd" clip-rule="evenodd" fill="none" stroke="#FFFFFF" stroke-width="2" stroke-miterlimit="10" d="
	M101.466,92.131l2.4,0.01l99.12,0.72c0,0,12,9.12,24.48,9.12c12.479,0,19.68-10.08,19.68-10.08s22.08-1.6,27.601-5.279
	c2.72-2.561,7.359-21.28-0.96-34.32c-8.32-13.04-42.96-18.72-42.96-18.72s-15.12-1.76-17.521-2.4
	c-2.4-0.64-36.479-19.84-41.04-21.84c-8.16-3.2-54.96-10.8-86.161-2.399c-31.2,8.399-61.2,22.56-64.8,23.04
	c-3.6,0.479-10.08,2.64-10.08,2.64s-5.76,36.72-5.76,48.72c3.12,2.88,37.68,8.88,37.68,8.88s8.4,12,22.32,12
	s26.64-10.56,26.64-10.56L101.466,92.131z"/>
</svg>
